<svg xmlns="http://www.w3.org/2000/svg" xmlns:xlink="http://www.w3.org/1999/xlink" width="500" zoomAndPan="magnify" viewBox="0 0 375 374.999991" height="500" preserveAspectRatio="xMidYMid meet" version="1.0"><defs><filter x="0%" y="0%" width="100%" height="100%" id="a88d9fcc91"><feColorMatrix values="0 0 0 0 1 0 0 0 0 1 0 0 0 0 1 0 0 0 1 0" color-interpolation-filters="sRGB"/></filter><g/><mask id="9a87e85b4f"><g filter="url(#a88d9fcc91)"><rect x="-37.5" width="450" fill="#000000" y="-37.499999" height="449.999989" fill-opacity="0.898"/></g></mask><clipPath id="b8419b4301"><rect x="0" width="375" y="0" height="375"/></clipPath></defs><g mask="url(#9a87e85b4f)"><g transform="matrix(1, 0, 0, 1, 0, 0)"><g clip-path="url(#b8419b4301)"><path fill="#345633" d="M 187.5 0 C 83.945312 0 0 83.945312 0 187.5 C 0 291.054688 83.945312 375 187.5 375 C 291.054688 375 375 291.054688 375 187.5 C 375 83.945312 291.054688 0 187.5 0 " fill-opacity="1" fill-rule="nonzero"/></g></g></g><g fill="#ffffff" fill-opacity="0.4"><g transform="translate(154.26099, 280.676869)"><g><path d="M 11.515625 1.75 C 6.835938 1.914062 3.164062 0.664062 0.5 -2 C -2.164062 -4.664062 -3.5 -8.085938 -3.5 -12.265625 C -3.5 -15.429688 -2.539062 -18.222656 -0.625 -20.640625 C 1.289062 -23.066406 4.082031 -24.363281 7.75 -24.53125 L 15.265625 -25.03125 C 30.109375 -26.03125 37.53125 -34.203125 37.53125 -49.546875 L 37.53125 -162.15625 C 37.53125 -173 42.867188 -178.421875 53.546875 -178.421875 C 64.222656 -178.421875 69.5625 -173 69.5625 -162.15625 L 69.5625 -49.796875 C 69.5625 -34.117188 65.390625 -21.941406 57.046875 -13.265625 C 48.710938 -4.585938 36.367188 0.25 20.015625 1.25 Z M 11.515625 1.75 "/></g></g></g><g fill="#ffffff" fill-opacity="1"><g transform="translate(143.200908, 269.61679)"><g><path d="M 11.515625 1.75 C 6.835938 1.914062 3.164062 0.664062 0.5 -2 C -2.164062 -4.664062 -3.5 -8.085938 -3.5 -12.265625 C -3.5 -15.429688 -2.539062 -18.222656 -0.625 -20.640625 C 1.289062 -23.066406 4.082031 -24.363281 7.75 -24.53125 L 15.265625 -25.03125 C 30.109375 -26.03125 37.53125 -34.203125 37.53125 -49.546875 L 37.53125 -162.15625 C 37.53125 -173 42.867188 -178.421875 53.546875 -178.421875 C 64.222656 -178.421875 69.5625 -173 69.5625 -162.15625 L 69.5625 -49.796875 C 69.5625 -34.117188 65.390625 -21.941406 57.046875 -13.265625 C 48.710938 -4.585938 36.367188 0.25 20.015625 1.25 Z M 11.515625 1.75 "/></g></g></g></svg>